<svg width="50" height="51" viewBox="0 0 50 51" fill="none" xmlns="http://www.w3.org/2000/svg">
<path d="M18.489 26.248C29.753 23.048 37.561 18.184 42.169 13.704C43.577 12.296 48.185 7.304 47.033 5C46.137 3.08 41.529 5.768 40.633 6.28C36.921 8.712 31.289 13.32 22.457 22.152C21.049 23.688 19.641 24.968 18.489 26.248ZM6.841 48.776C9.273 49.416 13.241 48.776 19.257 45.192C25.529 41.48 33.849 34.696 45.369 23.176L46.009 23.816C34.489 35.336 26.041 42.12 19.769 45.832C13.369 49.672 9.273 50.312 6.585 49.672C4.281 49.032 2.617 47.24 2.233 44.808C0.568999 37.128 10.425 26.376 15.161 21.64C22.073 14.728 28.089 10.248 32.953 7.56C34.873 6.408 46.009 0.903999 47.801 4.616C49.209 7.432 44.473 12.552 42.681 14.344C37.817 19.08 29.497 24.2 17.337 27.528C13.753 31.368 5.945 40.456 5.305 45.96C5.177 47.24 5.433 48.392 6.841 48.776Z" fill="#9F0202"/>
</svg>
