<svg width="145" height="88" viewBox="0 0 145 88" fill="none" xmlns="http://www.w3.org/2000/svg">
<path d="M18.3015 61.248C29.5655 58.048 37.3735 53.184 41.9815 48.704C43.3895 47.296 47.9975 42.304 46.8455 40C45.9495 38.08 41.3415 40.768 40.4455 41.28C36.7335 43.712 31.1015 48.32 22.2695 57.152C20.8615 58.688 19.4535 59.968 18.3015 61.248ZM6.6535 83.776C9.0855 84.416 13.0535 83.776 19.0695 80.192C25.3415 76.48 33.6615 69.696 45.1815 58.176L45.8215 58.816C34.3015 70.336 25.8535 77.12 19.5815 80.832C13.1815 84.672 9.0855 85.312 6.3975 84.672C4.0935 84.032 2.4295 82.24 2.0455 79.808C0.381499 72.128 10.2375 61.376 14.9735 56.64C21.8855 49.728 27.9015 45.248 32.7655 42.56C34.6855 41.408 45.8215 35.904 47.6135 39.616C49.0215 42.432 44.2855 47.552 42.4935 49.344C37.6295 54.08 29.3095 59.2 17.1495 62.528C13.5655 66.368 5.7575 75.456 5.1175 80.96C4.9895 82.24 5.2455 83.392 6.6535 83.776ZM58.6275 87.488H73.3475V44.096C73.3475 32.832 72.0675 30.784 68.2275 30.784C64.7715 30.784 61.1875 34.752 58.6275 43.2V87.488ZM40.0675 88V87.488H50.3075V32.192H41.3475V31.68H58.6275V41.92C60.9315 34.368 64.3875 29.76 69.1235 29.76C75.7795 29.76 81.0275 37.696 81.6675 42.176C83.9715 34.496 87.4275 29.76 92.1635 29.76C99.2035 29.76 104.708 38.72 104.708 42.944V87.488H114.948V88H40.0675ZM81.6675 87.488H96.3875V44.096C96.3875 32.832 95.1075 30.784 91.2675 30.784C87.8115 30.784 84.2275 34.752 81.6675 43.2V87.488ZM127.989 6.464C124.405 5.824 119.157 11.968 119.157 19.904C119.157 23.616 120.309 27.712 123.253 31.68H144.373V32.192H123.253V87.488H140.533V88H104.692V87.488H114.933V32.192H104.692V31.68H114.933V23.872C114.933 19.648 118.517 11.84 125.173 6.20799C129.909 2.112 135.925 0.319992 139.637 0.319992C142.708 0.319992 144.501 1.728 144.501 4.544C144.501 5.824 144.117 7.488 143.221 9.408L127.989 6.464Z" fill="#9F0202"/>
</svg>
